<?xml version="1.0" encoding="UTF-8" standalone="no"?>
<!-- Created with Inkscape (http://www.inkscape.org/) -->

<svg
   xmlns:dc="http://purl.org/dc/elements/1.1/"
   xmlns:cc="http://creativecommons.org/ns#"
   xmlns:rdf="http://www.w3.org/1999/02/22-rdf-syntax-ns#"
   xmlns:svg="http://www.w3.org/2000/svg"
   xmlns="http://www.w3.org/2000/svg"
   xmlns:sodipodi="http://sodipodi.sourceforge.net/DTD/sodipodi-0.dtd"
   xmlns:inkscape="http://www.inkscape.org/namespaces/inkscape"
   width="817.46399mm"
   height="817.46399mm"
   viewBox="0 0 817.46399 817.46399"
   version="1.1"
   id="svg8"
   inkscape:version="0.92.4 (5da689c313, 2019-01-14)"
   sodipodi:docname="Ontario_Wa-1L.svg">
  <defs
     id="defs2" />
  <sodipodi:namedview
     id="base"
     pagecolor="#ffffff"
     bordercolor="#666666"
     borderopacity="1.0"
     inkscape:pageopacity="0.0"
     inkscape:pageshadow="2"
     inkscape:zoom="0.15175781"
     inkscape:cx="3032.9378"
     inkscape:cy="1352.1485"
     inkscape:document-units="mm"
     inkscape:current-layer="layer1"
     showgrid="false"
     inkscape:window-width="1920"
     inkscape:window-height="1057"
     inkscape:window-x="-8"
     inkscape:window-y="-8"
     inkscape:window-maximized="1"
     showborder="true"
     inkscape:snap-global="false"
     showguides="false" />
  <metadata
     id="metadata5">
    <rdf:RDF>
      <cc:Work
         rdf:about="">
        <dc:format>image/svg+xml</dc:format>
        <dc:type
           rdf:resource="http://purl.org/dc/dcmitype/StillImage" />
        <dc:title></dc:title>
      </cc:Work>
    </rdf:RDF>
  </metadata>
  <g
     inkscape:label="Layer 1"
     inkscape:groupmode="layer"
     id="layer1"
     transform="translate(0,520.46403)">
    <rect
       style="opacity:1;fill:#fad214;fill-opacity:1;fill-rule:nonzero;stroke:none;stroke-width:9.2640419;stroke-linecap:round;stroke-linejoin:round;stroke-miterlimit:4;stroke-dasharray:none;stroke-opacity:1"
       id="rect1383"
       width="600"
       height="600"
       x="68.023514"
       y="-89.989304"
       rx="40"
       ry="40"
       transform="rotate(-45)" />
    <rect
       ry="27.5"
       rx="27.5"
       y="-77.489304"
       x="80.523514"
       height="575"
       width="575"
       id="rect1396"
       style="opacity:1;fill:#000000;fill-opacity:1;fill-rule:nonzero;stroke:none;stroke-width:8.87803936;stroke-linecap:round;stroke-linejoin:round;stroke-miterlimit:4;stroke-dasharray:none;stroke-opacity:1"
       transform="rotate(-45)" />
    <rect
       ry="15"
       rx="15"
       y="-64.989304"
       x="93.023514"
       height="550"
       width="550"
       id="rect1398"
       style="opacity:1;fill:#fad214;fill-opacity:1;fill-rule:nonzero;stroke:none;stroke-width:8.49203777;stroke-linecap:round;stroke-linejoin:round;stroke-miterlimit:4;stroke-dasharray:none;stroke-opacity:1"
       transform="rotate(-45)" />
    <rect
       style="opacity:1;fill:#000000;fill-opacity:1;fill-rule:nonzero;stroke:none;stroke-width:19.8521595;stroke-linecap:round;stroke-linejoin:round;stroke-miterlimit:4;stroke-dasharray:none;stroke-opacity:1"
       id="rect1174"
       width="515"
       height="12"
       x="141.00006"
       y="-42.000019" />
    <path
       d="m 657.79998,-145.80005 c 8.5175,11.72928 7.0351,32.43211 1.2422,42.05269 -2.4852,3.41771 -4.3609,5.54374 -10.0422,5.74731 h -343.8 v 10.20004 c 25.8891,2.73014 49.2415,11.29541 72.4,20.6 l 9.4,1.2 v 6 h -136 c -42.1194,-5.12943 -87.0425,-10.18881 -110.6882,-49.19252 -3.8556,-6.74691 1.6111,-11.87629 5.7929,-13.4869 10.2401,-3.07838 12.3493,19.30105 17.0398,24.73094 15.6038,15.87667 37.469,21.32895 60.943,24.54326 15.9206,-7.86669 39.196,-13.74976 62.5125,-15.19482 v -7.8 c -31.9915,-4.32924 -66.3495,-22.40197 -77.6183,-46.6636 -10.6192,-24.92015 12.5019,-37.95512 24.0183,-44.9364 12.6576,-7.86996 21.736,-13.37275 34.6,-18.2 0.3208,-8.98162 1.3652,-16.03178 8.6,-19.4 47.7555,6.26636 75.2086,-15.33322 107.2,-26.4 13.9917,-16.85848 27.6951,-31.49808 42.4859,-46.90938 2.8152,-3.06534 10.6179,0.95751 8.8435,4.33276 -9.318,17.33432 -21.2191,34.02895 -31.1878,52.96461 -11.8989,23.43396 -25.3855,56.8083 -18.1416,92.61201 h 238 c 9.4848,-20.06825 4.2185,-61.71478 31.4,-62.2 2.4517,0.0777 3.8386,0.19076 5.2,1.6 15.7452,17.33553 0.3729,46.15534 -2.2,63.8"
       style="fill:#000000;fill-opacity:1;fill-rule:evenodd;stroke:none;stroke-width:2.39069891"
       id="path1203"
       inkscape:connector-curvature="0"
       sodipodi:nodetypes="cccccccccccccccccccccccccccc" />
    <path
       style="fill:#000000;fill-opacity:1;fill-rule:evenodd;stroke:none;stroke-width:2.38106871"
       d="m 628.99998,-88.8001 c 7.756,0 14.0002,6.24417 14.0002,14.00016 0,7.75603 -6.2442,13.99968 -14.0002,13.99969 l -209.981,1.9e-4 c -12.1838,0.0115 -28.4787,-7.6802 -38.3,-17.7 -2.7833,-3.1657 -1.827,-6.63917 0.3223,-7.99681 3.1091,-1.87837 2.7707,-2.22894 12.9777,-2.30323 z"
       id="path1207"
       inkscape:connector-curvature="0"
       sodipodi:nodetypes="sssccccs" />
  </g>
</svg>
