<?xml version="1.0" encoding="UTF-8" standalone="no"?>
<!-- Created with Inkscape (http://www.inkscape.org/) -->

<svg
   xmlns:dc="http://purl.org/dc/elements/1.1/"
   xmlns:cc="http://creativecommons.org/ns#"
   xmlns:rdf="http://www.w3.org/1999/02/22-rdf-syntax-ns#"
   xmlns:svg="http://www.w3.org/2000/svg"
   xmlns="http://www.w3.org/2000/svg"
   xmlns:sodipodi="http://sodipodi.sourceforge.net/DTD/sodipodi-0.dtd"
   xmlns:inkscape="http://www.inkscape.org/namespaces/inkscape"
   width="606mm"
   height="756mm"
   viewBox="0 0 606 756"
   version="1.1"
   id="svg8"
   inkscape:version="0.92.4 (5da689c313, 2019-01-14)"
   sodipodi:docname="Ontario_Rb-1.svg">
  <defs
     id="defs2" />
  <sodipodi:namedview
     id="base"
     pagecolor="#ffffff"
     bordercolor="#666666"
     borderopacity="1.0"
     inkscape:pageopacity="0.0"
     inkscape:pageshadow="2"
     inkscape:zoom="0.12374369"
     inkscape:cx="2359.4951"
     inkscape:cy="549.7405"
     inkscape:document-units="mm"
     inkscape:current-layer="text27"
     showgrid="false"
     showguides="false"
     inkscape:window-width="1920"
     inkscape:window-height="1057"
     inkscape:window-x="-8"
     inkscape:window-y="-8"
     inkscape:window-maximized="1"
     inkscape:snap-global="false"
     showborder="false" />
  <metadata
     id="metadata5">
    <rdf:RDF>
      <cc:Work
         rdf:about="">
        <dc:format>image/svg+xml</dc:format>
        <dc:type
           rdf:resource="http://purl.org/dc/dcmitype/StillImage" />
        <dc:title></dc:title>
      </cc:Work>
    </rdf:RDF>
  </metadata>
  <g
     inkscape:label="Layer 1"
     inkscape:groupmode="layer"
     id="layer1"
     transform="translate(0,459)">
    <rect
       style="fill:#000000;fill-opacity:1;stroke:none;stroke-width:270.85928345;stroke-linecap:round;stroke-linejoin:round;stroke-miterlimit:1.41400003;stroke-dasharray:none;stroke-opacity:1"
       id="rect18"
       width="604"
       height="754"
       x="1"
       y="-458"
       rx="42"
       ry="42" />
    <rect
       ry="40"
       rx="40"
       y="-456"
       x="3"
       height="750"
       width="600"
       id="rect20"
       style="fill:#ffffff;fill-opacity:1;stroke:none;stroke-width:269.24389648;stroke-linecap:round;stroke-linejoin:round;stroke-miterlimit:1.41400003;stroke-dasharray:none;stroke-opacity:1" />
    <rect
       style="fill:#000000;fill-opacity:1;stroke:none;stroke-width:259.14483643;stroke-linecap:round;stroke-linejoin:round;stroke-miterlimit:1.41400003;stroke-dasharray:none;stroke-opacity:1"
       id="rect1284"
       width="575"
       height="725"
       x="15.5"
       y="-443.5"
       rx="27.5"
       ry="27.5" />
    <rect
       ry="15"
       rx="15"
       y="-431"
       x="28"
       height="700"
       width="550"
       id="rect1286"
       style="fill:#ffffff;fill-opacity:1;stroke:none;stroke-width:249.04049683;stroke-linecap:round;stroke-linejoin:round;stroke-miterlimit:1.41400003;stroke-dasharray:none;stroke-opacity:1" />
    <g
       aria-label="50"
       style="font-style:normal;font-variant:normal;font-weight:normal;font-stretch:normal;font-size:432.27664185px;line-height:1.25;font-family:'Roadgeek 2005 Series D';-inkscape-font-specification:'Roadgeek 2005 Series D';letter-spacing:0px;word-spacing:0px;fill:#000000;fill-opacity:1;stroke:none;stroke-width:10.80691528"
       id="text1400">
      <g
         aria-label="MAXIMUM"
         style="font-style:normal;font-variant:normal;font-weight:normal;font-stretch:normal;font-size:146.62756348px;line-height:1.25;font-family:'Roadgeek 2005 Series C';-inkscape-font-specification:'Roadgeek 2005 Series C';letter-spacing:0px;word-spacing:0px;fill:#000000;fill-opacity:1;stroke:none;stroke-width:39.61479187"
         id="text1419">
        <path
           d="m 112.5865,-257.75953 v -55.13197 l -18.1818,55.13197 -18.3285,-55.13197 v 55.13197 H 62 V -356 H 76.0762 L 94.4047,-300.86804 112.5865,-356 h 14.2229 v 98.24047 z"
           style="font-style:normal;font-variant:normal;font-weight:normal;font-stretch:normal;font-family:'Roadgeek 2005 Series C';-inkscape-font-specification:'Roadgeek 2005 Series C';fill:#000000;fill-opacity:1;stroke:none;stroke-width:39.61479187"
           id="path1421"
           inkscape:connector-curvature="0" />
        <path
           d="m 189.2567,-257.75953 -6.8915,-26.83285 h -21.1144 l -6.4516,26.83285 H 140.5763 L 165.0631,-356 h 13.783 l 24.4868,98.24047 z m -17.5953,-68.91496 -6.8915,28.29912 h 14.0762 z"
           style="font-style:normal;font-variant:normal;font-weight:normal;font-stretch:normal;font-family:'Roadgeek 2005 Series C';-inkscape-font-specification:'Roadgeek 2005 Series C';fill:#000000;fill-opacity:1;stroke:none;stroke-width:39.61479187"
           id="path1423"
           inkscape:connector-curvature="0" />
        <path
           d="m 252.1884,-257.75953 -13.783,-33.43109 -13.783,33.43109 H 209.813 L 231.2206,-308.78592 211.2793,-356 h 14.8094 l 12.3167,29.61877 L 250.8687,-356 h 14.8094 l -19.6481,47.21408 21.4076,51.02639 z"
           style="font-style:normal;font-variant:normal;font-weight:normal;font-stretch:normal;font-family:'Roadgeek 2005 Series C';-inkscape-font-specification:'Roadgeek 2005 Series C';fill:#000000;fill-opacity:1;stroke:none;stroke-width:39.61479187"
           id="path1425"
           inkscape:connector-curvature="0" />
        <path
           d="M 281.0144,-257.75953 V -356 h 13.783 v 98.24047 z"
           style="font-style:normal;font-variant:normal;font-weight:normal;font-stretch:normal;font-family:'Roadgeek 2005 Series C';-inkscape-font-specification:'Roadgeek 2005 Series C';fill:#000000;fill-opacity:1;stroke:none;stroke-width:39.61479187"
           id="path1427"
           inkscape:connector-curvature="0" />
        <path
           d="m 367.1123,-257.75953 v -55.13197 l -18.1818,55.13197 -18.3285,-55.13197 v 55.13197 H 316.5258 V -356 h 14.0762 l 18.3285,55.13196 L 367.1123,-356 h 14.2229 v 98.24047 z"
           style="font-style:normal;font-variant:normal;font-weight:normal;font-stretch:normal;font-family:'Roadgeek 2005 Series C';-inkscape-font-specification:'Roadgeek 2005 Series C';fill:#000000;fill-opacity:1;stroke:none;stroke-width:39.61479187"
           id="path1429"
           inkscape:connector-curvature="0" />
        <path
           d="m 457.8587,-287.08504 q 0,2.93255 -0.2932,5.27859 -0.1467,2.34604 -0.5865,4.39883 -0.4399,1.90615 -1.1731,3.81231 -0.7331,1.90616 -1.7595,3.81232 -3.6657,6.01173 -10.1173,9.97067 Q 437.6241,-256 430.586,-256 q -7.3314,0 -13.9296,-3.81232 -6.4516,-3.81231 -10.1173,-9.97067 -1.0264,-1.90616 -1.7596,-3.81232 -0.7331,-1.90616 -1.173,-3.81231 -0.4399,-2.05279 -0.7331,-4.39883 -0.1466,-2.34604 -0.1466,-5.27859 V -356 h 14.0762 v 70.67449 q 0,7.03812 3.8123,11.29032 3.8123,4.2522 9.9707,4.2522 5.7185,0 9.3842,-4.2522 3.8123,-4.2522 3.8123,-11.29032 V -356 h 14.0762 z"
           style="font-style:normal;font-variant:normal;font-weight:normal;font-stretch:normal;font-family:'Roadgeek 2005 Series C';-inkscape-font-specification:'Roadgeek 2005 Series C';fill:#000000;fill-opacity:1;stroke:none;stroke-width:39.61479187"
           id="path1431"
           inkscape:connector-curvature="0" />
        <path
           d="m 529.7773,-257.75953 v -55.13197 l -18.1819,55.13197 -18.3284,-55.13197 v 55.13197 H 479.1907 V -356 h 14.0763 l 18.3284,55.13196 L 529.7773,-356 h 14.2228 v 98.24047 z"
           style="font-style:normal;font-variant:normal;font-weight:normal;font-stretch:normal;font-family:'Roadgeek 2005 Series C';-inkscape-font-specification:'Roadgeek 2005 Series C';fill:#000000;fill-opacity:1;stroke:none;stroke-width:39.61479187"
           id="path1433"
           inkscape:connector-curvature="0" />
        <g
           aria-label="20"
           style="font-style:normal;font-variant:normal;font-weight:normal;font-stretch:normal;font-size:432.27664185px;line-height:1.25;font-family:'Roadgeek 2005 Series D';-inkscape-font-specification:'Roadgeek 2005 Series D';letter-spacing:0px;word-spacing:0px;fill:#000000;fill-opacity:1;stroke:none;stroke-width:428.11376953"
           id="text25"
           transform="translate(-90.501042)">
          <g
             aria-label="30"
             style="font-style:normal;font-variant:normal;font-weight:normal;font-stretch:normal;font-size:432.27664185px;line-height:1.25;font-family:'Roadgeek 2005 Series D';-inkscape-font-specification:'Roadgeek 2005 Series D';letter-spacing:0px;word-spacing:0px;fill:#000000;fill-opacity:1;stroke:none;stroke-width:4626.58984375"
             id="text26"
             transform="translate(-83.959588)">
            <g
               aria-label="40"
               style="font-style:normal;font-variant:normal;font-weight:normal;font-stretch:normal;font-size:432.27664185px;line-height:1.25;font-family:'Roadgeek 2005 Series D';-inkscape-font-specification:'Roadgeek 2005 Series D';letter-spacing:0px;word-spacing:0px;fill:#000000;fill-opacity:1;stroke:none;stroke-width:49999.171875"
               id="text27">
              <path
                 d="M 423.86552,96.622484 V 168.81268 H 378.47647 V 96.622484 H 234.96063 V 69.389055 L 378.47647,-120.81267 h 45.38905 V 55.123926 h 27.6657 V 96.622484 Z M 378.47647,-53.809787 295.91163,55.123926 h 82.56484 z"
                 style="font-style:normal;font-variant:normal;font-weight:normal;font-stretch:normal;font-family:'Roadgeek 2005 Series D';-inkscape-font-specification:'Roadgeek 2005 Series D';fill:#000000;fill-opacity:1;stroke:none;stroke-width:49999.171875"
                 id="path39"
                 inkscape:connector-curvature="0" />
              <path
                 d="m 719.96096,24.432285 q 0,34.582131 -8.21326,66.138326 -8.21325,31.556199 -23.34293,51.008639 Q 664.19727,174 618.37595,174 q -30.69164,0 -50.57637,-12.53602 -19.88472,-12.53602 -32.85302,-39.33717 -9.07781,-18.5879 -14.69741,-44.956775 -5.61959,-26.801152 -5.61959,-52.73775 0,-35.878962 8.21325,-66.570603 8.64553,-30.691642 23.34294,-51.44092 12.9683,-16.426512 30.69164,-24.207492 18.15562,-8.21326 43.22767,-8.21326 27.6657,0 47.11815,12.53603 19.45245,12.53602 33.2853,39.33717 9.07781,19.452449 14.26513,45.389048 5.18732,25.9365983 5.18732,53.170027 z m -45.82132,0 q 0,-24.6397689 -4.32277,-45.389048 -4.32277,-21.181555 -12.9683,-35.878961 -6.91643,-11.239193 -15.99423,-16.426512 -8.64554,-5.18732 -21.61384,-6.051873 -16.85879,-0.864554 -28.09798,7.780979 -11.23919,8.645533 -18.58789,28.097982 -5.6196,12.968299 -8.64554,31.556195 -2.59366,18.1556188 -2.59366,36.311238 0,23.342938 4.32277,44.95677 4.32277,21.613833 12.9683,35.446685 6.91642,11.23919 16.42651,16.85879 9.51009,5.6196 23.34294,5.6196 15.99424,0 26.36887,-8.64554 10.80692,-8.64553 18.15562,-28.097979 2.16139,-5.619596 4.32277,-13.400576 2.16138,-8.213256 3.45821,-16.858789 1.72911,-9.077809 2.59366,-18.155619 0.86456,-9.077809 0.86456,-17.723342 z"
                 style="font-style:normal;font-variant:normal;font-weight:normal;font-stretch:normal;font-family:'Roadgeek 2005 Series D';-inkscape-font-specification:'Roadgeek 2005 Series D';fill:#000000;fill-opacity:1;stroke:none;stroke-width:49999.171875"
                 id="path41"
                 inkscape:connector-curvature="0" />
            </g>
          </g>
        </g>
      </g>
    </g>
  </g>
</svg>
